{"title":"Les.Visiteurs.du.Soir.1942.DVDRip.XviD","uid":7026481,"size":1469799777,"categoryP":"video","categoryS":"movies","magnet":"?xt=urn:btih:70534ea9a699d6b43bc6e9f2ec5329d1816fd0a8&amp;dn=Les.Visiteurs.du.Soir.1942.DVDRip.XviD&amp;tr=udp%3A%2F%2Ftracker.openbittorrent.com%3A80&amp;tr=udp%3A%2F%2Fopen.demonii.com%3A1337&amp;tr=udp%3A%2F%2Ftracker.coppersurfer.tk%3A6969&amp;tr=udp%3A%2F%2Fexodus.desync.com%3A6969","seeders":2,"leechers":1,"uploader":"angebres","files":3,"time":1329031645,"description":"Two minions of the devil arrive at the castle of a Baron where preparations are being made for an upcoming wedding. They intend to break the hearts of all involved.\nThis romantic fantasy is a tribute to the power of love. The two minions were once cruel lovers who would manipulate and destroy their partners but reached a stalemate with each other. They have now sold their souls to the devil and break hearts in his service. They have been given extraordinary powers to help them with their task, and two of my favorite moments in this movie demonstrate them. In the first, the male companion (whose kind heart will serve as both his undoing as well as his salvation) takes pity on an entertainer whose dancing bear has been killed, and the second has them slowing time to a stop so they can have time to start working on their targets. When the male companion actually falls in love with his target, the devil himself arrives to take things in his own hand.\n &lt;a href=&quot;\nhttp://www.imdb.com/title/tt0035521/&quot; rel=&quot;nofollow&quot; target=&quot;_NEW&quot;&gt;\nhttp://www.imdb.com/title/tt0035521/&lt;/a&gt;\n\nGeneral\nComplete name                            : C:\\Filmes\\Les.Visiteurs.du.Soir.1942.DVDRip.XviD\\Les.Visiteurs.du.Soir.1942.DVDRip.XviD.avi\nFormat                                   : AVI\nFormat/Info                              : Audio Video Interleave\nFile size                                : 1.37 GiB\nDuration                                 : 1h 55mn\nOverall bit rate                         : 1 691 Kbps\nWriting application                      : VirtualDubMod 1.5.10.3 Fr | www.virtualdub-fr.org ||  (build 2550/release)\nWriting library                          : VirtualDubMod build 2550/release\n\nVideo\nID                                       : 0\nFormat                                   : MPEG-4 Visual\nFormat profile                           : Advanced Simple@L5\nFormat settings, BVOP                    : 1\nFormat settings, QPel                    : No\nFormat settings, GMC                     : No warppoints\nFormat settings, Matrix                  : Default (MPEG)\nCodec ID                                 : XVID\nCodec ID/Hint                            : XviD\nDuration                                 : 1h 55mn\nBit rate                                 : 1 489 Kbps\nWidth                                    : 640 pixels\nHeight                                   : 464 pixels\nDisplay aspect ratio                     : 1.379\nFrame rate                               : 25.000 fps\nColor space                              : YUV\nChroma subsampling                       : 4:2:0\nBit depth                                : 8 bits\nScan type                                : Progressive\nCompression mode                         : Lossy\nBits/(Pixel*Frame)                       : 0.201\nStream size                              : 1.21 GiB (88%)\nWriting library                          : XviD 1.1.2 (UTC 2006-11-01)\n\nAudio\nID                                       : 1\nFormat                                   : AC-3\nFormat/Info                              : Audio Coding 3\nMode extension                           : CM (complete main)\nCodec ID                                 : 2000\nDuration                                 : 1h 55mn\nBit rate mode                            : Constant\nBit rate                                 : 192 Kbps\nChannel(s)                               : 2 channels\nChannel positions                        : Front: L R\nSampling rate                            : 48.0 KHz\nBit depth                                : 16 bits\nCompression mode                         : Lossy\nStream size                              : 159 MiB (11%)\nAlignment                                : Split accross interleaves\nInterleave, duration                     : 40 ms (1.00 video frame)\nInterleave, preload duration             : 500 ms","torrent":{"xt":"urn:btih:70534ea9a699d6b43bc6e9f2ec5329d1816fd0a8","amp;dn":"Les.Visiteurs.du.Soir.1942.DVDRip.XviD","amp;tr":["udp%3A%2F%2Ftracker.openbittorrent.com%3A80","udp%3A%2F%2Fopen.demonii.com%3A1337","udp%3A%2F%2Ftracker.coppersurfer.tk%3A6969","udp%3A%2F%2Fexodus.desync.com%3A6969"],"infoHash":"70534ea9a699d6b43bc6e9f2ec5329d1816fd0a8","infoHashBuffer":{"type":"Buffer","data":[112,83,78,169,166,153,214,180,59,198,233,242,236,83,41,209,129,111,208,168]},"announce":[],"urlList":[]}}